<svg id="visual" viewBox="0 0 900 600" width="900" height="600" xmlns="http://www.w3.org/2000/svg" xmlns:xlink="http://www.w3.org/1999/xlink" version="1.1"><rect x="0" y="0" width="900" height="600" fill="#4FACF7"></rect><path d="M0 443L129 368L257 436L386 440L514 443L643 434L771 354L900 410L900 601L771 601L643 601L514 601L386 601L257 601L129 601L0 601Z" fill="#0a7cf5"></path><path d="M0 452L129 406L257 459L386 475L514 464L643 451L771 422L900 479L900 601L771 601L643 601L514 601L386 601L257 601L129 601L0 601Z" fill="#a980e3"></path><path d="M0 490L129 457L257 453L386 457L514 448L643 469L771 501L900 469L900 601L771 601L643 601L514 601L386 601L257 601L129 601L0 601Z" fill="#dd8fce"></path><path d="M0 489L129 537L257 527L386 481L514 530L643 497L771 536L900 505L900 601L771 601L643 601L514 601L386 601L257 601L129 601L0 601Z" fill="#f3aac3"></path><path d="M0 551L129 565L257 536L386 549L514 551L643 550L771 534L900 537L900 601L771 601L643 601L514 601L386 601L257 601L129 601L0 601Z" fill="#f7caca"></path></svg>